<svg width="2001" height="582" viewBox="0 0 2001 582" fill="none" xmlns="http://www.w3.org/2000/svg">
<path fill-rule="evenodd" clip-rule="evenodd" d="M815.235 90.019C789.431 108.72 767.569 125.029 766.651 126.261C765.734 127.492 764.691 129.512 764.334 130.75C763.69 132.978 763.782 133 773.855 133H784.026L811.173 113.25C826.103 102.388 841.44 91.925 845.256 90C851.813 86.691 852.743 86.5 862.256 86.5C871.023 86.5 873.038 86.837 877.902 89.118C882.654 91.347 931.258 125.7 937.383 131.16C939.101 132.691 941.158 133 949.633 133C959.536 133 959.818 132.938 959.797 130.75C959.785 129.512 958.997 127.555 958.047 126.399C957.096 125.244 936.519 109.974 912.319 92.467C888.119 74.96 866.931 59.596 865.235 58.326L862.152 56.016L815.235 90.019ZM1772.59 143.774C1773.19 156.252 1771.11 164.242 1762.4 182.929C1751.14 207.049 1745.82 227.669 1745.82 247.127C1745.82 264.295 1749.32 274.437 1758.61 284.202C1763.95 289.82 1774.23 297.173 1778.51 298.447C1780.15 298.933 1781.07 298.513 1782.15 296.8C1783.8 294.166 1791.21 248.434 1792.9 230.5C1794.57 212.677 1793.03 196.703 1787.25 172L1786.67 169.5L1788.65 171.741C1791.43 174.894 1796.56 187.634 1799.6 198.926C1801.91 207.553 1802.18 210.379 1802.24 227.5C1802.31 243.439 1801.76 250.967 1798.87 274.222C1796.98 289.469 1795.68 302.194 1795.99 302.5C1797.98 304.498 1815.68 291.968 1825.89 281.327C1836.88 269.878 1843.8 257.722 1847.2 243.936C1849.24 235.666 1849.3 218.651 1847.31 210.244C1841.69 186.41 1824.12 164.415 1797.05 147.331C1789.65 142.662 1773.69 134 1772.49 134C1772.29 134 1772.33 138.398 1772.59 143.774ZM1940.32 149.601C1930.83 150.557 1916.66 153.462 1908.32 156.162C1889.3 162.319 1866.07 175.234 1855.45 185.56C1851.15 189.748 1850.79 190.404 1852.35 191.277C1854.89 192.699 1865.6 191.452 1871.79 189.012C1874.71 187.859 1879.4 185.333 1882.21 183.399C1885.02 181.465 1890.24 177.856 1893.82 175.378C1902.36 169.461 1912.44 164.658 1922.32 161.809C1938.92 157.018 1975.82 159.899 1975.82 165.986C1975.82 166.393 1972.81 171.165 1969.13 176.591C1961.69 187.566 1958.67 194.218 1949.18 220.49C1938.17 251.008 1931.61 263.219 1919.42 275.893C1905.95 289.906 1890.64 297.469 1873.25 298.7C1862.62 299.453 1852.43 298.318 1849.66 296.072L1847.47 294.3L1851.26 287.4C1862.59 266.789 1870.3 257.556 1906.07 221.785C1922.43 205.422 1935.82 191.576 1935.82 191.017C1935.82 189.255 1934.47 189.834 1922.47 196.75C1904.9 206.878 1893.74 215.212 1879.99 228.486C1865.53 242.447 1855 256.015 1845.27 273.212C1839.71 283.041 1836.59 287.238 1829.69 294.184L1821.06 302.868L1797.19 314.483C1784.06 320.872 1770.84 327.314 1767.82 328.8L1762.32 331.5L1762.04 343.851L1761.76 356.202L1770.67 348.025C1792.85 327.688 1812.14 317.117 1833.62 313.528C1838.41 312.73 1851.09 311.385 1861.82 310.54C1882.83 308.885 1893.94 306.698 1904.8 302.077C1929.2 291.693 1948.75 268.457 1956.4 240.749C1964.82 210.238 1971.12 198.034 1993.69 168.488C1997.75 163.171 2000.67 158.471 2000.19 158.017C1998.88 156.777 1985.47 153.266 1975.41 151.529C1966.18 149.935 1947.3 148.898 1940.32 149.601Z" fill="#01A03D"/>
<path fill-rule="evenodd" clip-rule="evenodd" d="M220.819 107.451C220.819 182.033 221.157 216.523 221.924 220.201C224.511 232.608 232.567 243.77 242.645 248.911C252.436 253.906 268.084 255.328 280.979 252.395L288.034 250.791L287.326 243.145C286.937 238.94 286.509 235.383 286.375 235.239C286.241 235.096 284.148 235.7 281.725 236.581C276.475 238.49 264.049 238.772 258.111 237.118C251.668 235.323 245.76 230.235 242.329 223.528L239.319 217.642L239.052 108.821L238.784 0H229.802H220.819V107.451ZM548.819 126.5V253H557.319H565.819V232.834V212.668L569.914 218.584C581.167 234.839 596.333 245.709 615.404 251.19C626.606 254.41 650.455 254.41 662.319 251.191C694.468 242.467 716.853 218.486 724.524 184.552C726.659 175.106 726.644 152.025 724.497 142.5C718.688 116.733 705.473 97.833 684.365 85.101C676.611 80.424 661.114 75.335 650.319 73.922C633.789 71.757 614.113 74.802 600.512 81.632C588.579 87.623 576.327 98.4 569.867 108.585L566.819 113.392V56.696V0H557.819H548.819V126.5ZM94.3187 73.615C65.1987 78.039 45.1327 89.847 30.8197 110.981C21.6987 124.449 17.0027 139.513 16.1327 158.097C15.1537 179.031 18.7867 195.531 27.9207 211.627C33.0397 220.65 45.3887 233.72 54.2307 239.474C83.2907 258.387 126.275 258.811 153.882 240.458C161.516 235.383 173.081 223.562 172.624 221.302C172.456 220.473 169.737 217.977 166.58 215.754L160.842 211.713L152.719 219.474C146.507 225.408 142.68 228.121 136.457 231C124.989 236.306 119.195 237.506 105.319 237.449C91.0897 237.391 83.9817 235.777 71.8187 229.842C56.5397 222.387 43.3727 206.889 37.9657 190C25.9547 152.481 40.6777 112.479 72.1337 97.161C83.8157 91.472 92.0477 89.638 105.819 89.655C126.099 89.681 139.704 94.992 153.071 108.103L160.823 115.706L166.821 111.342C170.12 108.941 172.819 106.275 172.819 105.417C172.819 104.559 169.097 100.135 164.547 95.585C150.325 81.363 132.509 74.249 109.319 73.531C102.719 73.327 95.9687 73.364 94.3187 73.615ZM320.054 135.21C320.378 194.641 320.454 196.736 322.572 204.287C329.542 229.138 346.835 245.882 371.507 251.668C383.35 254.445 406.643 254.213 417.118 251.213C434.931 246.111 447.111 237.35 456.901 222.595L460.819 216.69V234.845V253H469.319H477.819V163.5V74H468.866H459.913L459.579 129.75C459.205 192.114 459.409 190.124 451.768 205.736C444.662 220.253 432.995 229.801 415.819 235.157C409.436 237.148 406.309 237.485 394.819 237.418C383.143 237.351 380.273 236.995 373.575 234.779C359.851 230.238 350.711 222.633 344.703 210.757C338.341 198.183 338.43 199.181 337.849 134L337.319 74.5L328.519 74.21L319.719 73.921L320.054 135.21ZM647.497 90.071C663.817 92.306 676.033 98.281 687.285 109.534C698.868 121.117 705.564 135.135 707.903 152.697C711.215 177.579 703.769 201.076 687.34 217.584C678.459 226.507 668.079 232.473 655.819 235.701C646.961 238.034 627.66 238.031 618.819 235.696C594.367 229.239 576.097 210.611 569.096 185C566.624 175.957 566.621 151.234 569.091 142C574.329 122.415 587.555 105.622 604.319 97.268C618.73 90.087 631.756 87.916 647.497 90.071ZM763.819 201.5V253H818.319H872.819V243.5V234H828.319H783.819V192V150H773.819H763.819V201.5ZM940.819 158.5V167H906.819H872.819V177V187H916.319H959.819V168.5V150H950.319H940.819V158.5ZM1626.58 316.426L1626.32 367.852L1617.82 361.287C1607.94 353.656 1598.56 348.91 1587.32 345.861C1580.7 344.066 1576.64 343.694 1563.82 343.709C1550.37 343.724 1547.02 344.069 1538.54 346.312C1498.53 356.896 1472.69 387.733 1464.65 434.5C1462.9 444.692 1462.67 449.212 1463.12 464.5C1463.87 490.12 1467.29 506.777 1475.26 523.623C1482.9 539.778 1491.53 550.768 1504.06 560.294C1522.19 574.075 1543.66 581 1568.27 581C1588.89 581 1605.06 575.276 1619.32 562.931L1626.32 556.869L1626.6 567.435L1626.89 578H1674.35H1721.82V421.5V265H1674.33H1626.84L1626.58 316.426ZM0.304675 283.187C0.0296749 283.909 -0.0793251 350.425 0.0616749 431L0.318675 577.5H49.3187H98.3187L98.5807 539.349L98.8427 501.198L124.343 501.148C160.469 501.077 175.348 499.165 194.673 492.113C218.32 483.483 236.438 467.428 247.111 445.647C255.196 429.147 258.635 415.369 259.503 396C260.733 368.571 254.608 343.777 242.06 325.381C237.564 318.791 226.639 307.954 219.819 303.32C208.045 295.319 191.113 288.477 173.855 284.744C164.759 282.777 160.55 282.664 82.5617 282.278C15.6977 281.948 0.713675 282.113 0.304675 283.187ZM1060.32 343.428C1039.24 347.604 1023.78 358.197 1008.03 379.25C1004.43 384.063 1001.2 388 1000.84 388C1000.48 388 999.387 386.313 998.407 384.25C992.691 372.227 979.306 358.557 966.959 352.134C953.544 345.155 945.907 343.513 926.819 343.506C907.81 343.499 902.193 344.621 889.081 351.048C879.991 355.503 868.264 364.326 862.53 371.024L858.819 375.36V361.18V347H811.319H763.819V462.5V578H811.27H858.722L859.021 515.25C859.32 452.519 859.321 452.498 861.608 446.839C865.944 436.11 872.846 429.728 882.246 427.756C894.201 425.249 905.368 431.292 910.009 442.782L912.319 448.5L912.604 513.25L912.888 578H960.819H1008.75L1009.03 514.25L1009.32 450.5L1011.92 444.954C1017.58 432.878 1025.01 427.576 1036.32 427.532C1048.86 427.483 1056.9 433.597 1060.47 445.89C1061.87 450.673 1062.09 459.82 1062.2 514.703L1062.32 577.999H1110.07L1157.82 578V498.407C1157.82 422.054 1157.73 418.404 1155.76 408.735C1151.75 389.053 1143.49 373.275 1131.56 362.513C1123.91 355.615 1108.79 348.014 1096.82 345.051C1085.81 342.327 1069.53 341.602 1060.32 343.428ZM1312.82 342.653C1292.86 343.599 1270.96 346.854 1250 351.986C1236.74 355.234 1209.89 363.673 1208.42 365.057C1207.58 365.843 1227.07 425.468 1228.76 427.287C1229.16 427.719 1239.13 425.611 1250.91 422.601C1285.23 413.83 1299.81 412.429 1314.79 416.463C1324.89 419.182 1331.65 425.985 1333.33 435.128L1334 438.756L1314.16 438.253C1283.86 437.484 1255.87 440.03 1238.32 445.154C1215.71 451.752 1201.14 466.552 1195.13 489C1192.68 498.179 1192.72 522.908 1195.2 532C1201.77 556.072 1218.7 572.147 1244.82 579.112C1256.31 582.177 1282.19 582.469 1294.13 579.668C1305.55 576.989 1318.16 570.307 1326.69 562.416L1333.82 555.813V566.906V578H1380.86H1427.89L1427.58 493.75L1427.26 409.5L1424.97 402.016C1417.94 379.023 1402.9 363.119 1378.14 352.48C1361.04 345.132 1336.95 341.508 1312.82 342.653ZM374.319 344.588C356.519 347.344 334.977 354.679 320.721 362.836C285.012 383.268 265.534 424.661 268.999 472.751C272.996 528.203 306.926 565.811 364.131 578.192C378.038 581.203 416.041 581.496 430.819 578.707C459.242 573.344 482.296 561.099 500.319 541.795C521.044 519.595 529.962 492.419 528.473 456C526.917 417.972 513.48 389.951 487.296 370.129C472.524 358.946 447.499 348.792 425.4 345.014C411.39 342.619 388.277 342.426 374.319 344.588ZM705.976 345.512C690.146 349.603 674.723 359.391 663.85 372.248L658.819 378.197V362.599V347H611.319H563.819V462.5V578H611.282H658.745L659.032 517.727L659.319 457.455L662.611 450.769C670.4 434.952 686.083 428 713.979 428H728.819V385.5V343L722.069 343.049C718.342 343.076 711.135 344.18 705.976 345.512ZM1860.82 344.05C1802.87 351.261 1767.77 382.177 1756.09 436.308C1753.63 447.699 1753.67 476.861 1756.16 489.374C1762.58 521.585 1776.61 544.068 1799.98 559.607C1824.14 575.668 1862.74 584.454 1894.32 581.077C1928.65 577.406 1959.96 564.041 1978.01 545.354L1982.69 540.5L1968.05 525C1960 516.475 1949.24 505.073 1944.13 499.663L1934.84 489.825L1928.08 494.94C1913.68 505.834 1900.27 510.497 1885.36 509.795C1874.52 509.284 1867.42 506.348 1860.29 499.425C1856.09 495.335 1851.89 488.306 1851.84 485.25C1851.82 484.261 1867.37 484 1926.32 484H2000.82L2000.81 480.25C2000.78 470.379 1998.52 446.564 1996.73 437.272C1987.14 387.56 1954.61 355.128 1904.7 345.513C1894.53 343.553 1871.09 342.772 1860.82 344.05ZM145.916 359.114C151.625 360.339 158.685 365.908 161.552 371.448C168.72 385.303 166.76 406.288 157.316 416.792C150.123 424.792 147.983 425.331 121.569 425.792L98.8187 426.19V392.095V358H119.77C131.394 358 143.033 358.496 145.916 359.114ZM1887.82 410.079C1896.29 413.908 1902.72 422.389 1904.29 431.785C1905.52 439.147 1906.1 439 1875.83 439H1849.08L1849.9 434.573C1853.55 415.072 1872.2 403.019 1887.82 410.079ZM412.451 422.99C422.499 427.937 428.503 436.913 431.459 451.408C432.781 457.893 432.864 460.9 431.959 469.484C430.555 482.796 427.973 489.577 421.688 496.452C414.683 504.118 407.777 507.333 398.319 507.333C385.714 507.333 377.237 501.713 370.897 489.154C363.698 474.893 362.481 460.669 367.249 446.5C375.258 422.693 393.051 413.44 412.451 422.99ZM1605.47 422.457C1615.43 426.987 1622.48 437.042 1624.8 450C1625.44 453.575 1626.32 458.443 1626.77 460.817C1627.71 465.872 1624.26 481.077 1620.24 489.566C1614.99 500.663 1604.76 507.294 1592.88 507.294C1577.86 507.294 1566.5 497.297 1561.24 479.457C1559.1 472.196 1558.85 456.834 1560.74 449C1566.52 425.1 1585.95 413.572 1605.47 422.457ZM1327.57 483.993L1333.82 484V494.043V504.086L1329.17 509.052C1326.43 511.984 1321.89 515.315 1318.09 517.186C1312.57 519.906 1310.57 520.356 1303.99 520.362C1294.68 520.371 1290.14 518.606 1286.2 513.434C1283.71 510.165 1283.28 508.634 1283.02 502.078C1282.68 493.657 1284.3 489.698 1289.44 486.332C1292.54 484.294 1304.77 482.973 1314.82 483.588C1318.39 483.807 1324.13 483.989 1327.57 483.993Z" fill="black"/>
</svg>
